<svg width="22" height="93" viewBox="0 0 22 93" fill="none" xmlns="http://www.w3.org/2000/svg">
<path d="M11 2C12.1046 2 13 2.89543 13 4L13 86C13 87.1046 12.1046 88 11 88V88C9.89543 88 9 87.1046 9 86L9 4C9 2.89543 9.89543 2 11 2V2Z" fill="white"/>
<path fill-rule="evenodd" clip-rule="evenodd" d="M2.37658 81.3661C2.87868 80.878 3.69275 80.878 4.19485 81.3661L11 87.9822L17.8051 81.3661C18.3073 80.878 19.1213 80.878 19.6234 81.3661C20.1255 81.8543 20.1255 82.6457 19.6234 83.1339L11.9091 90.6339C11.407 91.122 10.593 91.122 10.0909 90.6339L2.37658 83.1339C1.87447 82.6457 1.87447 81.8543 2.37658 81.3661Z" fill="white"/>
</svg>
