<svg width="24" height="22" viewBox="0 0 24 22" fill="none" xmlns="http://www.w3.org/2000/svg">
<path d="M4.6087 4.57143V2H6.34783V4.57143H8.95652V6.28571H6.34783V8.85714H4.6087V6.28571H2V4.57143H4.6087ZM7.21739 9.71429V7.14286H9.82609L9.41304 4.57143H15.5L17.5043 6.28571H20.2609C21.2174 6.28571 22 7.05714 22 8V18.2857C22 19.2286 21.2174 20 20.2609 20H6.34783C5.3913 20 4.6087 19.2286 4.6087 18.2857V9.71429H7.21739ZM13.3043 17.4286C15.7043 17.4286 17.6522 15.5086 17.6522 13.1429C17.6522 10.7771 15.7043 8.85714 13.3043 8.85714C10.9043 8.85714 8.95652 10.7771 8.95652 13.1429C8.95652 15.5086 10.9043 17.4286 13.3043 17.4286ZM10.5217 13.1429C10.5217 14.66 11.7652 15.8857 13.3043 15.8857C14.8435 15.8857 16.087 14.66 16.087 13.1429C16.087 11.6257 14.8435 10.4 13.3043 10.4C11.7652 10.4 10.5217 11.6257 10.5217 13.1429Z" fill="#8C8D96"/>
</svg>
