<svg width="29" height="29" viewBox="0 0 29 29" fill="none" xmlns="http://www.w3.org/2000/svg">
<path fill-rule="evenodd" clip-rule="evenodd" d="M27.9853 3.48534C28.7827 2.68802 28.7827 1.39531 27.9853 0.597991C27.188 -0.19933 25.8953 -0.19933 25.098 0.597991L14.2917 11.4043L3.48534 0.597991C2.68802 -0.19933 1.39531 -0.19933 0.597991 0.597991C-0.19933 1.39531 -0.19933 2.68802 0.597991 3.48534L11.4043 14.2917L0.597991 25.098C-0.19933 25.8953 -0.19933 27.188 0.597991 27.9853C1.39531 28.7827 2.68802 28.7827 3.48534 27.9853L14.2917 17.179L25.098 27.9853C25.8953 28.7827 27.188 28.7827 27.9853 27.9853C28.7827 27.188 28.7827 25.8953 27.9853 25.098L17.179 14.2917L27.9853 3.48534Z" fill="white"/>
</svg>
