<svg width="43" height="53" viewBox="0 0 43 53" fill="none" xmlns="http://www.w3.org/2000/svg">
<path d="M42.0312 45.5312C40.1328 47.8047 37.4492 49.5742 33.9805 50.8398C30.5117 52.082 26.668 52.7031 22.4492 52.7031C18.0195 52.7031 14.1289 51.7422 10.7773 49.8203C7.44922 47.875 4.87109 45.0625 3.04297 41.3828C1.23828 37.7031 0.3125 33.3789 0.265625 28.4102V24.9297C0.265625 19.8203 1.12109 15.4023 2.83203 11.6758C4.56641 7.92578 7.05078 5.06641 10.2852 3.09766C13.543 1.10547 17.3516 0.109375 21.7109 0.109375C27.7812 0.109375 32.5273 1.5625 35.9492 4.46875C39.3711 7.35156 41.3984 11.5586 42.0312 17.0898H31.7656C31.2969 14.1602 30.2539 12.0156 28.6367 10.6562C27.043 9.29687 24.8398 8.61719 22.0273 8.61719C18.4414 8.61719 15.7109 9.96484 13.8359 12.6602C11.9609 15.3555 11.0117 19.3633 10.9883 24.6836V27.9531C10.9883 33.3203 12.0078 37.375 14.0469 40.1172C16.0859 42.8594 19.0742 44.2305 23.0117 44.2305C26.9727 44.2305 29.7969 43.3867 31.4844 41.6992V32.875H21.8867V25.1055H42.0312V45.5312Z" fill="white"/>
</svg>
