<svg width="367" height="70" viewBox="0 0 367 70" fill="none" xmlns="http://www.w3.org/2000/svg">
<path d="M42.5416 47.5312C40.6431 49.8047 37.9595 51.5742 34.4908 52.8398C31.022 54.082 27.1783 54.7031 22.9595 54.7031C18.5298 54.7031 14.6392 53.7422 11.2877 51.8203C7.95953 49.875 5.38141 47.0625 3.55328 43.3828C1.7486 39.7031 0.822815 35.3789 0.77594 30.4102V26.9297C0.77594 21.8203 1.63141 17.4023 3.34235 13.6758C5.07672 9.92578 7.5611 7.06641 10.7955 5.09766C14.0533 3.10547 17.8619 2.10938 22.2213 2.10938C28.2916 2.10938 33.0377 3.5625 36.4595 6.46875C39.8814 9.35156 41.9088 13.5586 42.5416 19.0898H32.2759C31.8072 16.1602 30.7642 14.0156 29.147 12.6562C27.5533 11.2969 25.3502 10.6172 22.5377 10.6172C18.9517 10.6172 16.2213 11.9648 14.3463 14.6602C12.4713 17.3555 11.522 21.3633 11.4986 26.6836V29.9531C11.4986 35.3203 12.5181 39.375 14.5572 42.1172C16.5963 44.8594 19.5845 46.2305 23.522 46.2305C27.483 46.2305 30.3072 45.3867 31.9947 43.6992V34.875H22.397V27.1055H42.5416V47.5312ZM71.4147 54C70.9459 53.0859 70.6061 51.9492 70.3952 50.5898C67.9342 53.332 64.735 54.7031 60.7975 54.7031C57.0709 54.7031 53.9772 53.625 51.5163 51.4688C49.0788 49.3125 47.86 46.5938 47.86 43.3125C47.86 39.2812 49.3483 36.1875 52.3248 34.0312C55.3248 31.875 59.6491 30.7852 65.2975 30.7617H69.9733V28.582C69.9733 26.8242 69.5163 25.418 68.6022 24.3633C67.7116 23.3086 66.2936 22.7812 64.3483 22.7812C62.6373 22.7812 61.2897 23.1914 60.3053 24.0117C59.3444 24.832 58.8639 25.957 58.8639 27.3867H48.7038C48.7038 25.1836 49.3834 23.1445 50.7428 21.2695C52.1022 19.3945 54.0241 17.9297 56.5084 16.875C58.9928 15.7969 61.7819 15.2578 64.8756 15.2578C69.5631 15.2578 73.278 16.4414 76.0202 18.8086C78.7858 21.1523 80.1686 24.457 80.1686 28.7227V45.2109C80.192 48.8203 80.6959 51.5508 81.6803 53.4023V54H71.4147ZM63.0123 46.9336C64.5123 46.9336 65.8952 46.6055 67.1608 45.9492C68.4264 45.2695 69.3639 44.3672 69.9733 43.2422V36.7031H66.1764C61.0905 36.7031 58.3834 38.4609 58.0553 41.9766L58.0202 42.5742C58.0202 43.8398 58.4655 44.8828 59.3561 45.7031C60.2467 46.5234 61.4655 46.9336 63.0123 46.9336ZM97.6159 54H87.4206V0H97.6159V54ZM115.661 54H105.466V0H115.661V54ZM140.491 54.7031C134.913 54.7031 130.366 52.9922 126.85 49.5703C123.358 46.1484 121.612 41.5898 121.612 35.8945V34.9102C121.612 31.0898 122.35 27.6797 123.827 24.6797C125.304 21.6562 127.39 19.3359 130.085 17.7188C132.804 16.0781 135.897 15.2578 139.366 15.2578C144.569 15.2578 148.659 16.8984 151.636 20.1797C154.636 23.4609 156.136 28.1133 156.136 34.1367V38.2852H131.913C132.241 40.7695 133.225 42.7617 134.866 44.2617C136.53 45.7617 138.628 46.5117 141.159 46.5117C145.073 46.5117 148.132 45.0938 150.335 42.2578L155.327 47.8477C153.804 50.0039 151.741 51.6914 149.14 52.9102C146.538 54.1055 143.655 54.7031 140.491 54.7031ZM139.331 23.4844C137.315 23.4844 135.675 24.1641 134.409 25.5234C133.167 26.8828 132.37 28.8281 132.018 31.3594H146.151V30.5508C146.104 28.3008 145.495 26.5664 144.323 25.3477C143.151 24.1055 141.487 23.4844 139.331 23.4844ZM182.231 25.4883C180.849 25.3008 179.63 25.207 178.575 25.207C174.731 25.207 172.212 26.5078 171.017 29.1094V54H160.856V15.9609H170.454L170.735 20.4961C172.774 17.0039 175.599 15.2578 179.208 15.2578C180.333 15.2578 181.388 15.4102 182.372 15.7148L182.231 25.4883ZM200.909 39.6211L207.94 15.9609H218.839L203.546 59.9062L202.702 61.9102C200.429 66.8789 196.679 69.3633 191.452 69.3633C189.976 69.3633 188.476 69.1406 186.952 68.6953V60.9961L188.499 61.0312C190.421 61.0312 191.851 60.7383 192.788 60.1523C193.749 59.5664 194.499 58.5938 195.038 57.2344L196.233 54.1055L182.909 15.9609H193.843L200.909 39.6211ZM222.259 49.0078C222.259 47.3906 222.798 46.0781 223.876 45.0703C224.978 44.0625 226.349 43.5586 227.989 43.5586C229.653 43.5586 231.025 44.0625 232.103 45.0703C233.204 46.0781 233.755 47.3906 233.755 49.0078C233.755 50.6016 233.216 51.9023 232.138 52.9102C231.06 53.8945 229.677 54.3867 227.989 54.3867C226.325 54.3867 224.954 53.8945 223.876 52.9102C222.798 51.9023 222.259 50.6016 222.259 49.0078ZM222.259 20.2148C222.259 18.5977 222.798 17.2852 223.876 16.2773C224.978 15.2695 226.349 14.7656 227.989 14.7656C229.653 14.7656 231.025 15.2695 232.103 16.2773C233.204 17.2852 233.755 18.5977 233.755 20.2148C233.755 21.8086 233.216 23.1094 232.138 24.1172C231.06 25.1016 229.677 25.5938 227.989 25.5938C226.325 25.5938 224.954 25.1016 223.876 24.1172C222.798 23.1094 222.259 21.8086 222.259 20.2148ZM275.249 35.332C275.249 41.1914 273.913 45.8906 271.241 49.4297C268.593 52.9453 265.007 54.7031 260.484 54.7031C256.64 54.7031 253.534 53.3672 251.167 50.6953V68.625H241.007V15.9609H250.429L250.78 19.6875C253.241 16.7344 256.452 15.2578 260.413 15.2578C265.101 15.2578 268.745 16.9922 271.347 20.4609C273.948 23.9297 275.249 28.7109 275.249 34.8047V35.332ZM265.089 34.5938C265.089 31.0547 264.456 28.3242 263.191 26.4023C261.948 24.4805 260.132 23.5195 257.741 23.5195C254.554 23.5195 252.363 24.7383 251.167 27.1758V42.75C252.409 45.2578 254.624 46.5117 257.812 46.5117C262.663 46.5117 265.089 42.5391 265.089 34.5938ZM278.915 34.6289C278.915 30.8555 279.642 27.4922 281.095 24.5391C282.548 21.5859 284.634 19.3008 287.353 17.6836C290.095 16.0664 293.271 15.2578 296.88 15.2578C302.013 15.2578 306.197 16.8281 309.431 19.9688C312.689 23.1094 314.505 27.375 314.88 32.7656L314.95 35.3672C314.95 41.2031 313.322 45.8906 310.064 49.4297C306.806 52.9453 302.435 54.7031 296.95 54.7031C291.466 54.7031 287.083 52.9453 283.802 49.4297C280.544 45.9141 278.915 41.1328 278.915 35.0859V34.6289ZM289.075 35.3672C289.075 38.9766 289.755 41.7422 291.115 43.6641C292.474 45.5625 294.419 46.5117 296.95 46.5117C299.411 46.5117 301.333 45.5742 302.716 43.6992C304.099 41.8008 304.79 38.7773 304.79 34.6289C304.79 31.0898 304.099 28.3477 302.716 26.4023C301.333 24.457 299.388 23.4844 296.88 23.4844C294.396 23.4844 292.474 24.457 291.115 26.4023C289.755 28.3242 289.075 31.3125 289.075 35.3672ZM341.503 25.4883C340.12 25.3008 338.902 25.207 337.847 25.207C334.003 25.207 331.484 26.5078 330.288 29.1094V54H320.128V15.9609H329.726L330.007 20.4961C332.046 17.0039 334.87 15.2578 338.48 15.2578C339.605 15.2578 340.66 15.4102 341.644 15.7148L341.503 25.4883ZM359.267 6.60938V15.9609H365.771V23.4141H359.267V42.3984C359.267 43.8047 359.537 44.8125 360.076 45.4219C360.615 46.0312 361.646 46.3359 363.169 46.3359C364.294 46.3359 365.29 46.2539 366.158 46.0898V53.7891C364.165 54.3984 362.115 54.7031 360.005 54.7031C352.88 54.7031 349.247 51.1055 349.107 43.9102V23.4141H343.552V15.9609H349.107V6.60938H359.267Z" fill="white"/>
</svg>
