<svg width="123" height="24" viewBox="0 0 123 24" fill="none" xmlns="http://www.w3.org/2000/svg">
<path d="M14.3472 15.8438C13.7144 16.6016 12.8198 17.1914 11.6636 17.6133C10.5073 18.0273 9.22609 18.2344 7.81984 18.2344C6.34328 18.2344 5.04641 17.9141 3.92922 17.2734C2.81984 16.625 1.96047 15.6875 1.35109 14.4609C0.749531 13.2344 0.440937 11.793 0.425312 10.1367V8.97656C0.425312 7.27344 0.710468 5.80078 1.28078 4.55859C1.85891 3.30859 2.68703 2.35547 3.76516 1.69922C4.85109 1.03516 6.12062 0.703125 7.57375 0.703125C9.59719 0.703125 11.1792 1.1875 12.3198 2.15625C13.4605 3.11719 14.1362 4.51953 14.3472 6.36328H10.9253C10.7691 5.38672 10.4214 4.67188 9.88234 4.21875C9.35109 3.76562 8.61672 3.53906 7.67922 3.53906C6.48391 3.53906 5.57375 3.98828 4.94875 4.88672C4.32375 5.78516 4.00734 7.12109 3.99953 8.89453V9.98438C3.99953 11.7734 4.33937 13.125 5.01906 14.0391C5.69875 14.9531 6.69484 15.4102 8.00734 15.4102C9.32766 15.4102 10.2691 15.1289 10.8316 14.5664V11.625H7.63234V9.03516H14.3472V15.8438ZM23.9716 18C23.8153 17.6953 23.702 17.3164 23.6317 16.8633C22.8114 17.7773 21.745 18.2344 20.4325 18.2344C19.1903 18.2344 18.1591 17.875 17.3387 17.1562C16.5262 16.4375 16.12 15.5312 16.12 14.4375C16.12 13.0938 16.6161 12.0625 17.6083 11.3438C18.6083 10.625 20.0497 10.2617 21.9325 10.2539H23.4911V9.52734C23.4911 8.94141 23.3387 8.47266 23.0341 8.12109C22.7372 7.76953 22.2645 7.59375 21.6161 7.59375C21.0458 7.59375 20.5966 7.73047 20.2684 8.00391C19.9481 8.27734 19.788 8.65234 19.788 9.12891H16.4012C16.4012 8.39453 16.6278 7.71484 17.0809 7.08984C17.5341 6.46484 18.1747 5.97656 19.0028 5.625C19.8309 5.26562 20.7606 5.08594 21.7919 5.08594C23.3544 5.08594 24.5927 5.48047 25.5067 6.26953C26.4286 7.05078 26.8895 8.15234 26.8895 9.57422V15.0703C26.8973 16.2734 27.0653 17.1836 27.3934 17.8008V18H23.9716ZM21.1708 15.6445C21.6708 15.6445 22.1317 15.5352 22.5536 15.3164C22.9755 15.0898 23.288 14.7891 23.4911 14.4141V12.2344H22.2255C20.5302 12.2344 19.6278 12.8203 19.5184 13.9922L19.5067 14.1914C19.5067 14.6133 19.6552 14.9609 19.952 15.2344C20.2489 15.5078 20.6552 15.6445 21.1708 15.6445ZM32.7053 18H29.3069V0H32.7053V18ZM38.7203 18H35.3219V0H38.7203V18ZM46.997 18.2344C45.1377 18.2344 43.622 17.6641 42.4502 16.5234C41.2861 15.3828 40.7041 13.8633 40.7041 11.9648V11.6367C40.7041 10.3633 40.9502 9.22656 41.4423 8.22656C41.9345 7.21875 42.6298 6.44531 43.5283 5.90625C44.4345 5.35938 45.4658 5.08594 46.622 5.08594C48.3564 5.08594 49.7197 5.63281 50.7119 6.72656C51.7119 7.82031 52.2119 9.37109 52.2119 11.3789V12.7617H44.1377C44.247 13.5898 44.5752 14.2539 45.122 14.7539C45.6767 15.2539 46.3759 15.5039 47.2197 15.5039C48.5244 15.5039 49.5439 15.0312 50.2783 14.0859L51.9423 15.9492C51.4345 16.668 50.747 17.2305 49.8798 17.6367C49.0127 18.0352 48.0517 18.2344 46.997 18.2344ZM46.6103 7.82812C45.9384 7.82812 45.3916 8.05469 44.9697 8.50781C44.5556 8.96094 44.29 9.60938 44.1728 10.4531H48.8838V10.1836C48.8681 9.43359 48.665 8.85547 48.2744 8.44922C47.8838 8.03516 47.3291 7.82812 46.6103 7.82812ZM60.9105 8.49609C60.4495 8.43359 60.0433 8.40234 59.6917 8.40234C58.4105 8.40234 57.5706 8.83594 57.1722 9.70312V18H53.7855V5.32031H56.9847L57.0784 6.83203C57.7581 5.66797 58.6995 5.08594 59.9027 5.08594C60.2777 5.08594 60.6292 5.13672 60.9573 5.23828L60.9105 8.49609ZM67.1364 13.207L69.4802 5.32031H73.113L68.0153 19.9688L67.7341 20.6367C66.9762 22.293 65.7262 23.1211 63.9841 23.1211C63.4919 23.1211 62.9919 23.0469 62.4841 22.8984V20.332L62.9997 20.3438C63.6403 20.3438 64.1169 20.2461 64.4294 20.0508C64.7497 19.8555 64.9997 19.5312 65.1794 19.0781L65.5778 18.0352L61.1364 5.32031H64.7809L67.1364 13.207ZM74.253 16.3359C74.253 15.7969 74.4327 15.3594 74.792 15.0234C75.1592 14.6875 75.6163 14.5195 76.1631 14.5195C76.7178 14.5195 77.1749 14.6875 77.5342 15.0234C77.9014 15.3594 78.085 15.7969 78.085 16.3359C78.085 16.8672 77.9053 17.3008 77.5459 17.6367C77.1866 17.9648 76.7256 18.1289 76.1631 18.1289C75.6084 18.1289 75.1514 17.9648 74.792 17.6367C74.4327 17.3008 74.253 16.8672 74.253 16.3359ZM74.253 6.73828C74.253 6.19922 74.4327 5.76172 74.792 5.42578C75.1592 5.08984 75.6163 4.92188 76.1631 4.92188C76.7178 4.92188 77.1749 5.08984 77.5342 5.42578C77.9014 5.76172 78.085 6.19922 78.085 6.73828C78.085 7.26953 77.9053 7.70312 77.5459 8.03906C77.1866 8.36719 76.7256 8.53125 76.1631 8.53125C75.6084 8.53125 75.1514 8.36719 74.792 8.03906C74.4327 7.70312 74.253 7.26953 74.253 6.73828ZM91.9164 11.7773C91.9164 13.7305 91.4711 15.2969 90.5805 16.4766C89.6977 17.6484 88.5023 18.2344 86.9945 18.2344C85.7133 18.2344 84.6781 17.7891 83.8891 16.8984V22.875H80.5023V5.32031H83.643L83.7602 6.5625C84.5805 5.57812 85.6508 5.08594 86.9711 5.08594C88.5336 5.08594 89.7484 5.66406 90.6156 6.82031C91.4828 7.97656 91.9164 9.57031 91.9164 11.6016V11.7773ZM88.5297 11.5312C88.5297 10.3516 88.3188 9.44141 87.8969 8.80078C87.4828 8.16016 86.8773 7.83984 86.0805 7.83984C85.018 7.83984 84.2875 8.24609 83.8891 9.05859V14.25C84.3031 15.0859 85.0414 15.5039 86.1039 15.5039C87.7211 15.5039 88.5297 14.1797 88.5297 11.5312ZM93.1384 11.543C93.1384 10.2852 93.3806 9.16406 93.865 8.17969C94.3494 7.19531 95.0447 6.43359 95.9509 5.89453C96.865 5.35547 97.9236 5.08594 99.1267 5.08594C100.838 5.08594 102.232 5.60938 103.31 6.65625C104.396 7.70312 105.002 9.125 105.127 10.9219L105.15 11.7891C105.15 13.7344 104.607 15.2969 103.521 16.4766C102.435 17.6484 100.978 18.2344 99.1502 18.2344C97.322 18.2344 95.8611 17.6484 94.7673 16.4766C93.6814 15.3047 93.1384 13.7109 93.1384 11.6953V11.543ZM96.5252 11.7891C96.5252 12.9922 96.7517 13.9141 97.2048 14.5547C97.658 15.1875 98.3064 15.5039 99.1502 15.5039C99.9705 15.5039 100.611 15.1914 101.072 14.5664C101.533 13.9336 101.763 12.9258 101.763 11.543C101.763 10.3633 101.533 9.44922 101.072 8.80078C100.611 8.15234 99.9627 7.82812 99.1267 7.82812C98.2986 7.82812 97.658 8.15234 97.2048 8.80078C96.7517 9.44141 96.5252 10.4375 96.5252 11.7891ZM114.001 8.49609C113.54 8.43359 113.134 8.40234 112.782 8.40234C111.501 8.40234 110.661 8.83594 110.263 9.70312V18H106.876V5.32031H110.075L110.169 6.83203C110.849 5.66797 111.79 5.08594 112.993 5.08594C113.368 5.08594 113.72 5.13672 114.048 5.23828L114.001 8.49609ZM119.922 2.20312V5.32031H122.09V7.80469H119.922V14.1328C119.922 14.6016 120.012 14.9375 120.192 15.1406C120.372 15.3438 120.715 15.4453 121.223 15.4453C121.598 15.4453 121.93 15.418 122.219 15.3633V17.9297C121.555 18.1328 120.872 18.2344 120.168 18.2344C117.793 18.2344 116.583 17.0352 116.536 14.6367V7.80469H114.684V5.32031H116.536V2.20312H119.922Z" fill="#3D5AFE"/>
</svg>
