<svg width="170" height="280" viewBox="0 0 170 280" fill="none" xmlns="http://www.w3.org/2000/svg">
<rect x="1.5" y="1.5" width="167" height="277" fill="white" stroke="#3D5AFE" stroke-width="3" stroke-dasharray="10 10"/>
<mask id="path-2-outside-1" maskUnits="userSpaceOnUse" x="65.8935" y="121.08" width="38.1838" height="38.1838" fill="black">
<rect fill="white" x="65.8935" y="121.08" width="38.1838" height="38.1838"/>
<path fill-rule="evenodd" clip-rule="evenodd" d="M99.978 141.752C100.954 141.752 101.745 140.961 101.745 139.985C101.745 139.01 100.954 138.218 99.978 138.218L86.7523 138.218L86.7523 124.993C86.7523 124.017 85.9612 123.226 84.9854 123.226C84.0095 123.226 83.2184 124.017 83.2184 124.993L83.2184 138.218L69.9927 138.218C69.0168 138.218 68.2258 139.01 68.2258 139.985C68.2258 140.961 69.0168 141.752 69.9927 141.752L83.2184 141.752L83.2184 154.978C83.2184 155.954 84.0095 156.745 84.9854 156.745C85.9612 156.745 86.7523 155.954 86.7523 154.978L86.7523 141.752L99.978 141.752Z"/>
</mask>
<path fill-rule="evenodd" clip-rule="evenodd" d="M99.978 141.752C100.954 141.752 101.745 140.961 101.745 139.985C101.745 139.01 100.954 138.218 99.978 138.218L86.7523 138.218L86.7523 124.993C86.7523 124.017 85.9612 123.226 84.9854 123.226C84.0095 123.226 83.2184 124.017 83.2184 124.993L83.2184 138.218L69.9927 138.218C69.0168 138.218 68.2258 139.01 68.2258 139.985C68.2258 140.961 69.0168 141.752 69.9927 141.752L83.2184 141.752L83.2184 154.978C83.2184 155.954 84.0095 156.745 84.9854 156.745C85.9612 156.745 86.7523 155.954 86.7523 154.978L86.7523 141.752L99.978 141.752Z" fill="#3D5AFE"/>
<path d="M101.745 139.985L100.745 139.985L100.745 139.985L101.745 139.985ZM99.978 141.752L99.978 140.752H99.978L99.978 141.752ZM99.978 138.218L99.978 139.218L99.978 139.218L99.978 138.218ZM86.7523 138.218L85.7523 138.218C85.7523 138.771 86.2 139.218 86.7523 139.218L86.7523 138.218ZM86.7523 124.993L85.7523 124.993L86.7523 124.993ZM84.9854 123.226L84.9854 124.226L84.9854 124.226L84.9854 123.226ZM83.2184 124.993L84.2184 124.993L83.2184 124.993ZM83.2184 138.218L83.2184 139.218C83.7707 139.218 84.2184 138.771 84.2184 138.218L83.2184 138.218ZM69.9927 138.218L69.9927 139.218L69.9927 139.218L69.9927 138.218ZM68.2258 139.985L69.2258 139.985L69.2258 139.985L68.2258 139.985ZM69.9927 141.752L69.9927 140.752L69.9927 140.752L69.9927 141.752ZM83.2184 141.752L84.2184 141.752C84.2184 141.2 83.7707 140.752 83.2184 140.752L83.2184 141.752ZM83.2184 154.978L84.2184 154.978L84.2184 154.978L83.2184 154.978ZM84.9854 156.745L84.9854 155.745L84.9854 155.745L84.9854 156.745ZM86.7523 154.978L85.7523 154.978L85.7523 154.978L86.7523 154.978ZM86.7523 141.752L86.7523 140.752C86.2 140.752 85.7523 141.2 85.7523 141.752L86.7523 141.752ZM100.745 139.985C100.745 140.409 100.402 140.752 99.978 140.752L99.978 142.752C101.506 142.752 102.745 141.513 102.745 139.985L100.745 139.985ZM99.978 139.218C100.402 139.218 100.745 139.562 100.745 139.985L102.745 139.985C102.745 138.457 101.506 137.218 99.978 137.218L99.978 139.218ZM86.7523 139.218L99.978 139.218L99.978 137.218L86.7523 137.218L86.7523 139.218ZM85.7523 124.993L85.7523 138.218L87.7523 138.218L87.7523 124.993L85.7523 124.993ZM84.9854 124.226C85.4089 124.226 85.7523 124.569 85.7523 124.993L87.7523 124.993C87.7523 123.465 86.5135 122.226 84.9854 122.226L84.9854 124.226ZM84.2184 124.993C84.2184 124.569 84.5618 124.226 84.9854 124.226L84.9854 122.226C83.4572 122.226 82.2184 123.465 82.2184 124.993L84.2184 124.993ZM84.2184 138.218L84.2184 124.993L82.2184 124.993L82.2184 138.218L84.2184 138.218ZM69.9927 139.218L83.2184 139.218L83.2184 137.218L69.9927 137.218L69.9927 139.218ZM69.2258 139.985C69.2258 139.562 69.5691 139.218 69.9927 139.218L69.9927 137.218C68.4646 137.218 67.2258 138.457 67.2258 139.985L69.2258 139.985ZM69.9927 140.752C69.5691 140.752 69.2258 140.409 69.2258 139.985L67.2258 139.985C67.2258 141.513 68.4646 142.752 69.9927 142.752L69.9927 140.752ZM83.2184 140.752L69.9927 140.752L69.9927 142.752L83.2184 142.752L83.2184 140.752ZM84.2184 154.978L84.2184 141.752L82.2184 141.752L82.2184 154.978L84.2184 154.978ZM84.9854 155.745C84.5618 155.745 84.2184 155.402 84.2184 154.978L82.2184 154.978C82.2184 156.506 83.4572 157.745 84.9854 157.745L84.9854 155.745ZM85.7523 154.978C85.7523 155.402 85.4089 155.745 84.9854 155.745L84.9854 157.745C86.5135 157.745 87.7523 156.506 87.7523 154.978L85.7523 154.978ZM85.7523 141.752L85.7523 154.978L87.7523 154.978L87.7523 141.752L85.7523 141.752ZM99.978 140.752L86.7523 140.752L86.7523 142.752L99.978 142.752L99.978 140.752Z" fill="#3D5AFE" mask="url(#path-2-outside-1)"/>
</svg>
