<svg width="60" height="60" viewBox="0 0 60 60" fill="none" xmlns="http://www.w3.org/2000/svg">
<mask id="path-1-outside-1" maskUnits="userSpaceOnUse" x="10.8935" y="11.0797" width="38.1838" height="38.1838" fill="black">
<rect fill="white" x="10.8935" y="11.0797" width="38.1838" height="38.1838"/>
<path fill-rule="evenodd" clip-rule="evenodd" d="M44.978 31.7523C45.9539 31.7523 46.7449 30.9612 46.7449 29.9854C46.7449 29.0095 45.9539 28.2184 44.978 28.2184L31.7523 28.2184L31.7523 14.9927C31.7523 14.0168 30.9612 13.2258 29.9854 13.2258C29.0095 13.2258 28.2184 14.0168 28.2184 14.9927L28.2184 28.2184L14.9927 28.2184C14.0168 28.2184 13.2258 29.0095 13.2258 29.9854C13.2258 30.9612 14.0168 31.7523 14.9927 31.7523L28.2184 31.7523L28.2184 44.978C28.2184 45.9539 29.0095 46.7449 29.9854 46.7449C30.9612 46.7449 31.7523 45.9539 31.7523 44.978L31.7523 31.7523L44.978 31.7523Z"/>
</mask>
<path fill-rule="evenodd" clip-rule="evenodd" d="M44.978 31.7523C45.9539 31.7523 46.7449 30.9612 46.7449 29.9854C46.7449 29.0095 45.9539 28.2184 44.978 28.2184L31.7523 28.2184L31.7523 14.9927C31.7523 14.0168 30.9612 13.2258 29.9854 13.2258C29.0095 13.2258 28.2184 14.0168 28.2184 14.9927L28.2184 28.2184L14.9927 28.2184C14.0168 28.2184 13.2258 29.0095 13.2258 29.9854C13.2258 30.9612 14.0168 31.7523 14.9927 31.7523L28.2184 31.7523L28.2184 44.978C28.2184 45.9539 29.0095 46.7449 29.9854 46.7449C30.9612 46.7449 31.7523 45.9539 31.7523 44.978L31.7523 31.7523L44.978 31.7523Z" fill="#3D5AFE"/>
<path d="M46.7449 29.9854L45.7449 29.9854L45.7449 29.9854L46.7449 29.9854ZM44.978 31.7523L44.978 30.7523H44.978L44.978 31.7523ZM44.978 28.2184L44.978 29.2184L44.978 29.2184L44.978 28.2184ZM31.7523 28.2184L30.7523 28.2184C30.7523 28.7707 31.2 29.2184 31.7523 29.2184L31.7523 28.2184ZM31.7523 14.9927L30.7523 14.9927L31.7523 14.9927ZM29.9854 13.2258L29.9854 14.2258L29.9854 14.2258L29.9854 13.2258ZM28.2184 14.9927L29.2184 14.9927L28.2184 14.9927ZM28.2184 28.2184L28.2184 29.2184C28.7707 29.2184 29.2184 28.7707 29.2184 28.2184L28.2184 28.2184ZM14.9927 28.2184L14.9927 29.2184L14.9927 29.2184L14.9927 28.2184ZM13.2258 29.9854L14.2258 29.9854L14.2258 29.9854L13.2258 29.9854ZM14.9927 31.7523L14.9927 30.7523L14.9927 30.7523L14.9927 31.7523ZM28.2184 31.7523L29.2184 31.7523C29.2184 31.2 28.7707 30.7523 28.2184 30.7523L28.2184 31.7523ZM28.2184 44.978L29.2184 44.978L29.2184 44.978L28.2184 44.978ZM29.9854 46.7449L29.9854 45.7449L29.9854 45.7449L29.9854 46.7449ZM31.7523 44.978L30.7523 44.978L30.7523 44.978L31.7523 44.978ZM31.7523 31.7523L31.7523 30.7523C31.2 30.7523 30.7523 31.2 30.7523 31.7523L31.7523 31.7523ZM45.7449 29.9854C45.7449 30.4089 45.4016 30.7523 44.978 30.7523L44.978 32.7523C46.5061 32.7523 47.7449 31.5135 47.7449 29.9854L45.7449 29.9854ZM44.978 29.2184C45.4016 29.2184 45.7449 29.5618 45.7449 29.9854L47.7449 29.9854C47.7449 28.4572 46.5061 27.2184 44.978 27.2184L44.978 29.2184ZM31.7523 29.2184L44.978 29.2184L44.978 27.2184L31.7523 27.2184L31.7523 29.2184ZM30.7523 14.9927L30.7523 28.2184L32.7523 28.2184L32.7523 14.9927L30.7523 14.9927ZM29.9854 14.2258C30.4089 14.2258 30.7523 14.5691 30.7523 14.9927L32.7523 14.9927C32.7523 13.4646 31.5135 12.2258 29.9854 12.2258L29.9854 14.2258ZM29.2184 14.9927C29.2184 14.5691 29.5618 14.2258 29.9854 14.2258L29.9854 12.2258C28.4572 12.2258 27.2184 13.4646 27.2184 14.9927L29.2184 14.9927ZM29.2184 28.2184L29.2184 14.9927L27.2184 14.9927L27.2184 28.2184L29.2184 28.2184ZM14.9927 29.2184L28.2184 29.2184L28.2184 27.2184L14.9927 27.2184L14.9927 29.2184ZM14.2258 29.9854C14.2258 29.5618 14.5691 29.2184 14.9927 29.2184L14.9927 27.2184C13.4646 27.2184 12.2258 28.4572 12.2258 29.9854L14.2258 29.9854ZM14.9927 30.7523C14.5691 30.7523 14.2258 30.4089 14.2258 29.9854L12.2258 29.9854C12.2258 31.5135 13.4646 32.7523 14.9927 32.7523L14.9927 30.7523ZM28.2184 30.7523L14.9927 30.7523L14.9927 32.7523L28.2184 32.7523L28.2184 30.7523ZM29.2184 44.978L29.2184 31.7523L27.2184 31.7523L27.2184 44.978L29.2184 44.978ZM29.9854 45.7449C29.5618 45.7449 29.2184 45.4016 29.2184 44.978L27.2184 44.978C27.2184 46.5061 28.4572 47.7449 29.9854 47.7449L29.9854 45.7449ZM30.7523 44.978C30.7523 45.4016 30.4089 45.7449 29.9854 45.7449L29.9854 47.7449C31.5135 47.7449 32.7523 46.5061 32.7523 44.978L30.7523 44.978ZM30.7523 31.7523L30.7523 44.978L32.7523 44.978L32.7523 31.7523L30.7523 31.7523ZM44.978 30.7523L31.7523 30.7523L31.7523 32.7523L44.978 32.7523L44.978 30.7523Z" fill="#3D5AFE" mask="url(#path-1-outside-1)"/>
</svg>
