<svg width="30" height="30" viewBox="0 0 30 30" fill="none" xmlns="http://www.w3.org/2000/svg">
<g clip-path="url(#clip0)">
<circle cx="15" cy="15" r="12.5" fill="white" stroke="#8C8D96"/>
<path d="M22.7345 16.0141C22.7735 15.6891 22.7995 15.3511 22.7995 15.0001C22.7995 14.6491 22.7735 14.3111 22.7215 13.9861L24.9185 12.2701C25.1135 12.1141 25.1655 11.8281 25.0485 11.6071L22.9685 8.0061C22.8385 7.7721 22.5655 7.6941 22.3315 7.7721L19.7445 8.8121C19.1985 8.3961 18.6265 8.0581 17.9895 7.7981L17.5995 5.0421C17.5605 4.7821 17.3395 4.6001 17.0795 4.6001H12.9195C12.6595 4.6001 12.4515 4.7821 12.4125 5.0421L12.0225 7.7981C11.3855 8.0581 10.8005 8.4091 10.2675 8.8121L7.68055 7.7721C7.44655 7.6811 7.17355 7.7721 7.04355 8.0061L4.96355 11.6071C4.83355 11.8411 4.88555 12.1141 5.09355 12.2701L7.29055 13.9861C7.23855 14.3111 7.19955 14.6621 7.19955 15.0001C7.19955 15.3381 7.22555 15.6891 7.27755 16.0141L5.08055 17.7301C4.88555 17.8861 4.83355 18.1721 4.95055 18.3931L7.03055 21.9941C7.16055 22.2281 7.43355 22.3061 7.66755 22.2281L10.2545 21.1881C10.8005 21.6041 11.3725 21.9421 12.0095 22.2021L12.3995 24.9581C12.4515 25.2181 12.6595 25.4001 12.9195 25.4001H17.0795C17.3395 25.4001 17.5605 25.2181 17.5865 24.9581L17.9765 22.2021C18.6135 21.9421 19.1985 21.5911 19.7315 21.1881L22.3185 22.2281C22.5525 22.3191 22.8255 22.2281 22.9555 21.9941L25.0355 18.3931C25.1655 18.1591 25.1135 17.8861 24.9055 17.7301L22.7345 16.0141V16.0141ZM14.9995 18.9001C12.8545 18.9001 11.0995 17.1451 11.0995 15.0001C11.0995 12.8551 12.8545 11.1001 14.9995 11.1001C17.1445 11.1001 18.8995 12.8551 18.8995 15.0001C18.8995 17.1451 17.1445 18.9001 14.9995 18.9001Z" fill="#8C8D96"/>
</g>
<defs>
<clipPath id="clip0">
<rect width="26" height="26" fill="white" transform="translate(2 2)"/>
</clipPath>
</defs>
</svg>
